<mxfile host="app.diagrams.net" modified="2024-06-19T06:20:23.377Z" agent="Mozilla/5.0 (Windows NT 10.0; Win64; x64) AppleWebKit/537.36 (KHTML, like Gecko) Chrome/126.0.0.0 Safari/537.36" version="24.5.5" etag="N1rWMM1_NKv_lOZLeSJf" type="github">
  <diagram name="Page-1" id="GCf7YkMAvtA50YO5VCFE">
    <mxGraphModel>
      <root>
        <mxCell id="0" />
        <mxCell id="1" parent="0" />
      </root>
    </mxGraphModel>
  </diagram>
</mxfile>
